Coordinates

Units are S.I. units (second, meters, Newtons, ...)
If the header above contains a line with 'inDegrees', this indicates whether rotational values are in degrees (yes) or radians (no).

inDegrees=no
nColumns=21
nRows=17
DataType=double
version=3
OpenSimVersion=4.6-2026-03-31-d6972f9e6
endheader
time	/jointset/ground_pelvis/pelvis_tilt/value	/jointset/ground_pelvis/pelvis_list/value	/jointset/ground_pelvis/pelvis_rotation/value	/jointset/ground_pelvis/pelvis_tx/value	/jointset/ground_pelvis/pelvis_ty/value	/jointset/ground_pelvis/pelvis_tz/value	/jointset/hip_r/hip_flexion_r/value	/jointset/hip_r/hip_adduction_r/value	/jointset/hip_r/hip_rotation_r/value	/jointset/walker_knee_r/knee_angle_r/value	/jointset/patellofemoral_r/knee_angle_r_beta/value	/jointset/ankle_r/ankle_angle_r/value	/jointset/subtalar_r/subtalar_angle_r/value	/jointset/hip_l/hip_flexion_l/value	/jointset/hip_l/hip_adduction_l/value	/jointset/hip_l/hip_rotation_l/value	/jointset/walker_knee_l/knee_angle_l/value	/jointset/patellofemoral_l/knee_angle_l_beta/value	/jointset/ankle_l/ankle_angle_l/value	/jointset/subtalar_l/subtalar_angle_l/value
142.496	-0.1488853729572677	-0.04251969253574684	-0.1309412438353805	1.134855475479378	0.9821400069669101	-0.3136273058689914	0.5223431070738374	0.09729719730231547	0.1445018228102468	0.1951141798809718	0.1951141805158406	0.04886920947502694	-0.1992447425942284	-0.2194578995429086	-0.002121911575149222	0.07484158981099338	0.3997735550125999	0.3997735554463194	-0.5043767181416645	-0.3147296510570688
142.5	-0.1531389375742487	-0.03789820759275648	-0.134536246997062	1.135322363158558	0.9817729319681014	-0.3132437810472887	0.5236025263549958	0.09582258882613873	0.149470461777502	0.1787481171183423	0.1787481178577338	0.05640962769967321	-0.1832281401368457	-0.2127039001854218	0.00476976137116088	0.08747160259209437	0.418345252150002	0.4183452525896684	-0.5067070384174993	-0.2997366466171235
142.504	-0.1570353822161874	-0.03337311297280596	-0.1377120872658416	1.135726895276568	0.9812771464545372	-0.3129124882172796	0.5246691948902508	0.09421280945891428	0.1542286179993751	0.165314830470195	0.1653148312799363	0.06308610238610961	-0.1692006815043972	-0.205193866294872	0.01161561139479047	0.1002564963752442	0.4389056173244006	0.4389056177777604	-0.506994465087422	-0.2844867862879072
142.508	-0.1605446375016729	-0.0290317299618359	-0.1404824586780974	1.136074485195449	0.9806577024860276	-0.3126279949056563	0.5254809231734654	0.09256938487805068	0.1587936248705549	0.1547698683233883	0.1547698691683839	0.06874317892493155	-0.157384673047449	-0.1970302561723779	0.01827784242477359	0.112865810053725	0.4613230826947991	0.4613230831706226	-0.505494974828083	-0.2692474411098105
142.512	-0.163635872248574	-0.02495522355567183	-0.142862425199581	1.13637108303465	0.9799200944945027	-0.3123839715556368	0.5259739947604807	0.09098822309963002	0.1631772742410313	0.1470460358817957	0.147046036727897	0.07325036696414369	-0.1479475882015449	-0.1883210764052405	0.02461710536212399	0.1249756336669944	0.4854485413758274	0.4854485418826059	-0.5025018213570085	-0.2543242099562321
142.516	-0.1662788246477426	-0.02121699880600049	-0.1448683837008802	1.13662277014583	0.9790700073706634	-0.3121733614579604	0.5260876947040636	0.08955791330090343	0.1673835226485069	0.1420582103411197	0.1420582111569655	0.07650835383368509	-0.1409981568495026	-0.1791759885847559	0.03049511393513657	0.1362795649648801	0.5111199469767638	0.5111199475217018	-0.4983351128735239	-0.2400530203024941
142.52	-0.1684452147661118	-0.01788144060169141	-0.146518098960331	1.136835344144477	0.9781130624780496	-0.3119885543400114	0.5257686525407327	0.0883584675156895	0.1714068544932167	0.1397083007045797	0.139708301463329	0.07845448715911116	-0.136584776476502	-0.1697023860081874	0.03577726310201991	0.1464985687208853	0.5381671715792201	0.5381671721674191	-0.493329942422187	-0.2267900091444174
142.524	-0.1701100881477753	-0.01500303272442581	-0.1478308189214634	1.137013921247391	0.9770545817625474	-0.3118215579837004	0.5249746577141851	0.08746049815713974	0.1752314220870988	0.1398900784233458	0.1398900791040585	0.0790673135473383	-0.1346961194407875	-0.1600017406020908	0.04033517788190649	0.1553892972642715	0.5664168123700865	0.5664168130037012	-0.4878237213985613	-0.2148997091583128
142.528	-0.1712529884659588	-0.01262585554431774	-0.148827464987381	1.137162579856984	0.9758993865397808	-0.3116641645228341	0.5236776877983532	0.08692478774545928	0.1788310437319079	0.1424936177946323	0.1424936183830706	0.07836991304311812	-0.1352637606974643	-0.1501664342871382	0.04404913722100679	0.1627505753401222	0.5956966805397541	0.5956966812171244	-0.4821434014134171	-0.2047421654910822
142.532	-0.1718589694900389	-0.0107834274986138	-0.1495308560492468	1.137284063137157	0.9746516369017348	-0.3115081105380326	0.5218660736800771	0.086802175569266	0.1821700376737243	0.1474091632725009	0.1474091637612915	0.07643177773521848	-0.1381665746252335	-0.1402771046913005	0.04681030994131489	0.1684278920327849	0.625839816850704	0.6258398175656935	-0.4765931244228679	-0.1966595088017544
142.536	-0.171919469612485	-0.009498842118643405	-0.1499659196783597	1.137379555339674	0.9733147155225327	-0.31134523104596	0.5195457813924551	0.0871336767439152	0.1852047968229529	0.1545302863373193	0.1545302867255276	0.07336905081529588	-0.143236563654855	-0.1304004963618781	0.04852274511131974	0.1723158573558187	0.6566879215942026	0.6566879223359519	-0.4714427877129678	-0.190962537830598
142.54	-0.1714330458722036	-0.008785154539156499	-0.1501598637941091	1.137448544843556	0.9718911605668924	-0.3111676079356759	0.5167407858060398	0.08795076570575693	0.1878859843785383	0.1637562066975439	0.163756206989673	0.069343006474313	-0.1502657837107036	-0.1205878349951523	0.04910507622690585	0.1743586852013421	0.6880940960343448	0.6880940967874987	-0.4669180352501098	-0.1879180023718223
142.544	-0.1704060295131186	-0.008645973448896003	-0.1501422823288319	1.137488780854631	0.9703826445854566	-0.3109677144021273	0.5134926230079725	0.08927578093624386	0.1901612029082172	0.1749931946271823	0.1749931948315964	0.06455668106657129	-0.1590141169909454	-0.1108736378576885	0.04849189520129928	0.1745488586968903	0.7199248739154599	0.719924874660873	-0.4631920697229541	-0.1877372197655842
142.548	-0.1688531515812524	-0.009076204306939643	-0.1499451632435652	1.137496325612439	0.9687899975379288	-0.3107385578822023	0.5098592276084524	0.09112239894225135	0.1919779627170445	0.1881550022602162	0.1881550023871989	0.05924963874287426	-0.1692176094518544	-0.1012748695410551	0.04663477440951672	0.1729242192885863	0.7520615541545654	0.7520615548705154	-0.4603795759167141	-0.1905665256098793
142.552	-0.1667980084916749	-0.01006286976644872	-0.1496027839862927	1.137465703721719	0.9671132899382706	-0.3104738246463279	0.5059129776284869	0.09349608307171137	0.1932867607790716	0.2031622654232323	0.2031622654831837	0.05369101815397452	-0.1805968991922336	-0.09179057839648072	0.04350299175224044	0.1695637929113257	0.784400754999021	0.7844007556629149	-0.4585331179032159	-0.196480083792107
142.556	-0.1642731621134993	-0.01158592831651144	-0.1491514923676669	1.137390147417117	0.9653519978779641	-0.3101680292573133	0.5017378100510322	0.09639440394887554	0.1940440774009453	0.2199408483990629	0.2199408484014024	0.0481711558539958	-0.1928651891706995	-0.08240224371657989	0.03908405551621234	0.1645827033869066	0.8168540838998514	0.8168540844902096	-0.4576423528057064	-0.2054755553498075
142.56	-0.1613197984940875	-0.01361904053818138	-0.1486293632957297	1.137261928182015	0.9635052554048152	-0.3098166703291516	0.497425451923508	0.09980718507341474	0.1942151259853874	0.2384191899985167	0.2384191899515163	0.04299213069339457	-0.2057353870035542	-0.07307488735044504	0.03338407749465344	0.1581265145496493	0.8493469310377213	0.8493469315360782	-0.4576361532644866	-0.2174728828980062
